<svg width="60" height="60" viewBox="0 0 60 60" fill="none" xmlns="http://www.w3.org/2000/svg">
<path d="M9.375 28.1251H46.7803L32.4572 14.4826C31.7072 13.7682 31.6781 12.5813 32.3925 11.8313C33.1059 11.0823 34.2928 11.0523 35.0437 11.7667L51.4013 27.3479C52.1091 28.0567 52.5 28.9979 52.5 30.0001C52.5 31.0013 52.1091 31.9435 51.3684 32.6832L35.0428 48.2326C34.68 48.5785 34.215 48.7501 33.75 48.7501C33.255 48.7501 32.76 48.5551 32.3916 48.1679C31.6772 47.4179 31.7063 46.232 32.4563 45.5176L46.8394 31.8751H9.375C8.34 31.8751 7.5 31.0351 7.5 30.0001C7.5 28.9651 8.34 28.1251 9.375 28.1251Z" fill="#C7051A"/>
</svg>
