<svg width="60" height="60" viewBox="0 0 60 60" fill="none" xmlns="http://www.w3.org/2000/svg">
<path d="M50.625 28.1251H13.2197L27.5428 14.4826C28.2928 13.7682 28.3219 12.5813 27.6075 11.8313C26.8941 11.0823 25.7072 11.0523 24.9563 11.7667L8.59875 27.3479C7.89094 28.0567 7.5 28.9979 7.5 30.0001C7.5 31.0013 7.89094 31.9435 8.63156 32.6832L24.9572 48.2326C25.32 48.5785 25.785 48.7501 26.25 48.7501C26.745 48.7501 27.24 48.5551 27.6084 48.1679C28.3228 47.4179 28.2937 46.232 27.5437 45.5176L13.1606 31.8751H50.625C51.66 31.8751 52.5 31.0351 52.5 30.0001C52.5 28.9651 51.66 28.1251 50.625 28.1251Z" fill="#C7051A"/>
</svg>
