<svg width="349" height="349" viewBox="0 0 349 349" fill="none" xmlns="http://www.w3.org/2000/svg">
<path d="M336.559 68.611L231.016 174.165L336.559 279.714C352.258 295.419 352.258 320.859 336.559 336.564C328.715 344.408 318.431 348.333 308.152 348.333C297.856 348.333 287.571 344.414 279.733 336.564L174.167 231.003L68.609 336.563C60.766 344.407 50.481 348.332 40.193 348.332C29.908 348.332 19.63 344.413 11.78 336.563C-3.91899 320.865 -3.91899 295.424 11.78 279.713L117.32 174.164L11.774 68.611C-3.92499 52.912 -3.92499 27.466 11.774 11.767C27.47 -3.92004 52.901 -3.92004 68.603 11.767L174.166 117.321L279.721 11.767C295.426 -3.92004 320.86 -3.92004 336.553 11.767C352.258 27.466 352.258 52.912 336.559 68.611Z" fill="black"/>
</svg>
