<svg width="80" height="80" viewBox="0 0 80 80" fill="none" xmlns="http://www.w3.org/2000/svg">
<g clip-path="url(#clip0)">
<path d="M75.9998 36H44.0002V3.99976C44.0002 1.79224 42.208 0 39.9998 0C37.7922 0 36 1.79224 36 3.99976V36H3.99976C1.79224 36 0 37.7922 0 39.9998C0 42.208 1.79224 44.0002 3.99976 44.0002H36V75.9998C36 78.208 37.7922 80.0002 39.9998 80.0002C42.208 80.0002 44.0002 78.208 44.0002 75.9998V44.0002H75.9998C78.208 44.0002 80.0002 42.208 80.0002 39.9998C80.0002 37.7922 78.208 36 75.9998 36Z" fill="#2A52BE"/>
</g>
<defs>
<clipPath id="clip0">
<rect width="80" height="80" fill="white"/>
</clipPath>
</defs>
</svg>
